<svg aria-hidden="true" style="position: absolute; width: 0; height: 0; overflow: hidden;" version="1.1" xmlns="http://www.w3.org/2000/svg" xmlns:xlink="http://www.w3.org/1999/xlink">
<defs>
<symbol id="icon-Arrow-14" viewBox="0 0 30 32">
<path d="M3.201 29.5c0.13 1.097 1.124 1.881 2.221 1.751l17.876-2.113c1.097-0.13 1.881-1.124 1.751-2.221s-1.124-1.881-2.221-1.751l-15.889 1.878-1.878-15.889c-0.13-1.097-1.124-1.881-2.221-1.751s-1.881 1.124-1.751 2.221l2.113 17.876zM25.125 0.753l-21.508 27.274 3.141 2.477 21.508-27.274-3.141-2.477z"></path>
</symbol>
<symbol id="icon-Arrow-15" viewBox="0 0 28 32">
<path d="M24.022 1.613c-0.149-1.029-1.104-1.742-2.133-1.593l-16.766 2.428c-1.029 0.149-1.742 1.104-1.593 2.133s1.104 1.742 2.133 1.593l14.903-2.159 2.159 14.903c0.149 1.029 1.104 1.742 2.133 1.593s1.742-1.104 1.593-2.133l-2.428-16.766zM3.39 30.154l20.277-27.145-3.016-2.253-20.277 27.145 3.016 2.253z"></path>
</symbol>
<symbol id="icon-arrow-down" viewBox="0 0 48 32">
<path fill="none" stroke="#0ef387" style="stroke: var(--color1, #0ef387)" stroke-linejoin="round" stroke-linecap="round" stroke-miterlimit="4" stroke-width="8" d="M4 6l20 20 20-20"></path>
</symbol>
<symbol id="icon-arrow-down_carrency" viewBox="0 0 48 32">
<path fill="none" stroke="#fafafa" style="stroke: var(--color2, #fafafa)" stroke-linejoin="round" stroke-linecap="round" stroke-miterlimit="4" stroke-width="8" d="M4 6l20 20 20-20"></path>
</symbol>
<symbol id="icon-arrow-up" viewBox="0 0 48 32">
<path fill="none" stroke="#0ef387" style="stroke: var(--color1, #0ef387)" stroke-linejoin="round" stroke-linecap="round" stroke-miterlimit="4" stroke-width="8" d="M4 26l20-20 20 20"></path>
</symbol>
<symbol id="icon-arrow-up_carrency" viewBox="0 0 48 32">
<path fill="none" stroke="#fafafa" style="stroke: var(--color2, #fafafa)" stroke-linejoin="round" stroke-linecap="round" stroke-miterlimit="4" stroke-width="8" d="M4 26l20-20 20 20"></path>
</symbol>
<symbol id="icon-calendar-1" viewBox="0 0 32 32">
<path fill="none" stroke="#0ef387" style="stroke: var(--color1, #0ef387)" stroke-linejoin="round" stroke-linecap="round" stroke-miterlimit="4" stroke-width="2.4" d="M25.333 5.333h-18.667c-1.473 0-2.667 1.194-2.667 2.667v18.667c0 1.473 1.194 2.667 2.667 2.667h18.667c1.473 0 2.667-1.194 2.667-2.667v-18.667c0-1.473-1.194-2.667-2.667-2.667z"></path>
<path fill="none" stroke="#0ef387" style="stroke: var(--color1, #0ef387)" stroke-linejoin="round" stroke-linecap="round" stroke-miterlimit="4" stroke-width="2.4" d="M21.333 2.667v5.333"></path>
<path fill="none" stroke="#0ef387" style="stroke: var(--color1, #0ef387)" stroke-linejoin="round" stroke-linecap="round" stroke-miterlimit="4" stroke-width="2.4" d="M10.667 2.667v5.333"></path>
<path fill="none" stroke="#0ef387" style="stroke: var(--color1, #0ef387)" stroke-linejoin="round" stroke-linecap="round" stroke-miterlimit="4" stroke-width="2.4" d="M4 13.333h24"></path>
</symbol>
<symbol id="icon-calendar" viewBox="0 0 32 32">
<path fill="none" stroke="#fafafa" style="stroke: var(--color2, #fafafa)" stroke-linejoin="round" stroke-linecap="round" stroke-miterlimit="4" stroke-width="2.4" d="M25.333 5.333h-18.667c-1.473 0-2.667 1.194-2.667 2.667v18.667c0 1.473 1.194 2.667 2.667 2.667h18.667c1.473 0 2.667-1.194 2.667-2.667v-18.667c0-1.473-1.194-2.667-2.667-2.667z"></path>
<path fill="none" stroke="#fafafa" style="stroke: var(--color2, #fafafa)" stroke-linejoin="round" stroke-linecap="round" stroke-miterlimit="4" stroke-width="2.4" d="M21.333 2.667v5.333"></path>
<path fill="none" stroke="#fafafa" style="stroke: var(--color2, #fafafa)" stroke-linejoin="round" stroke-linecap="round" stroke-miterlimit="4" stroke-width="2.4" d="M10.667 2.667v5.333"></path>
<path fill="none" stroke="#fafafa" style="stroke: var(--color2, #fafafa)" stroke-linejoin="round" stroke-linecap="round" stroke-miterlimit="4" stroke-width="2.4" d="M4 13.333h24"></path>
</symbol>
<symbol id="icon-check1" viewBox="0 0 45 32">
<path fill="none" stroke="#0ef387" style="stroke: var(--color1, #0ef387)" stroke-linejoin="round" stroke-linecap="round" stroke-miterlimit="4" stroke-width="4.8" d="M39.467 3.2l-23.467 23.467-10.667-10.667"></path>
</symbol>
<symbol id="icon-check" viewBox="0 0 32 32">
<path fill="#097b45" style="fill: var(--color3, #097b45)" d="M0 16c0-8.838 7.162-16 16-16s16 7.162 16 16c0 8.837-7.163 16-16 16s-16-7.163-16-16zM23.237 13.238c0.681-0.681 0.681-1.794 0-2.475s-1.794-0.681-2.475 0l-6.763 6.762-2.763-2.762c-0.681-0.681-1.794-0.681-2.475 0s-0.681 1.794 0 2.475l4 4c0.681 0.681 1.794 0.681 2.475 0l8-8z"></path>
</symbol>
<symbol id="icon-clock" viewBox="0 0 32 32">
<path fill="none" stroke="#fafafa" style="stroke: var(--color2, #fafafa)" stroke-linejoin="round" stroke-linecap="round" stroke-miterlimit="4" stroke-width="2.4" d="M16 29.333c7.364 0 13.333-5.97 13.333-13.333s-5.969-13.333-13.333-13.333c-7.364 0-13.333 5.97-13.333 13.333s5.97 13.333 13.333 13.333z"></path>
<path fill="none" stroke="#fafafa" style="stroke: var(--color2, #fafafa)" stroke-linejoin="round" stroke-linecap="round" stroke-miterlimit="4" stroke-width="2.4" d="M16 8v8l5.333 2.667"></path>
</symbol>
<symbol id="icon-close" viewBox="0 0 32 32">
<path fill="none" stroke="#fafafa" style="stroke: var(--color2, #fafafa)" stroke-linejoin="round" stroke-linecap="round" stroke-miterlimit="4" stroke-width="2.6667" d="M24 8l-16 16"></path>
<path fill="none" stroke="#fafafa" style="stroke: var(--color2, #fafafa)" stroke-linejoin="round" stroke-linecap="round" stroke-miterlimit="4" stroke-width="2.6667" d="M8 8l16 16"></path>
</symbol>
<symbol id="icon-delete" viewBox="0 0 32 32">
<path fill="none" stroke="#0ef387" style="stroke: var(--color1, #0ef387)" stroke-linejoin="round" stroke-linecap="round" stroke-miterlimit="4" stroke-width="3" d="M4 8h24"></path>
<path fill="none" stroke="#0ef387" style="stroke: var(--color1, #0ef387)" stroke-linejoin="round" stroke-linecap="round" stroke-miterlimit="4" stroke-width="3" d="M25.333 8v18.667c0 0.707-0.281 1.385-0.781 1.886s-1.178 0.781-1.886 0.781h-13.333c-0.707 0-1.386-0.281-1.886-0.781s-0.781-1.178-0.781-1.886v-18.667M10.667 8v-2.667c0-0.707 0.281-1.386 0.781-1.886s1.178-0.781 1.886-0.781h5.333c0.707 0 1.386 0.281 1.886 0.781s0.781 1.178 0.781 1.886v2.667"></path>
<path fill="none" stroke="#0ef387" style="stroke: var(--color1, #0ef387)" stroke-linejoin="round" stroke-linecap="round" stroke-miterlimit="4" stroke-width="3" d="M13.333 14.666v8"></path>
<path fill="none" stroke="#0ef387" style="stroke: var(--color1, #0ef387)" stroke-linejoin="round" stroke-linecap="round" stroke-miterlimit="4" stroke-width="3" d="M18.667 14.666v8"></path>
</symbol>
<symbol id="icon-error" viewBox="0 0 32 32">
<path fill="#e74a3b" style="fill: var(--color4, #e74a3b)" d="M0 16c0-8.838 7.162-16 16-16s16 7.162 16 16c0 8.837-7.163 16-16 16s-16-7.163-16-16zM10.938 13.006l2.944 2.938-2.944 2.994c-0.581 0.588-0.581 1.538 0 2.069 0.588 0.637 1.537 0.637 2.069 0l2.938-2.888 2.994 2.888c0.588 0.637 1.538 0.637 2.069 0 0.637-0.531 0.637-1.481 0-2.069l-2.888-2.994 2.888-2.938c0.637-0.531 0.637-1.481 0-2.069-0.531-0.581-1.481-0.581-2.069 0l-2.994 2.944-2.938-2.944c-0.531-0.581-1.481-0.581-2.069 0-0.581 0.588-0.581 1.537 0 2.069z"></path>
</symbol>
<symbol id="icon-eye" viewBox="0 0 32 32">
<path fill="none" stroke="#fafafa" style="stroke: var(--color2, #fafafa)" stroke-linejoin="round" stroke-linecap="round" stroke-miterlimit="4" stroke-width="2.4" d="M1.333 16c0 0 5.333-10.667 14.667-10.667s14.667 10.667 14.667 10.667-5.333 10.667-14.667 10.667c-9.333 0-14.667-10.667-14.667-10.667z"></path>
<path fill="none" stroke="#fafafa" style="stroke: var(--color2, #fafafa)" stroke-linejoin="round" stroke-linecap="round" stroke-miterlimit="4" stroke-width="2.4" d="M16 20c2.209 0 4-1.791 4-4s-1.791-4-4-4c-2.209 0-4 1.791-4 4s1.791 4 4 4z"></path>
</symbol>
<symbol id="icon-eye-off" viewBox="0 0 32 32">
<path fill="none" stroke="#fafafa" style="stroke: var(--color2, #fafafa)" stroke-linejoin="round" stroke-linecap="round" stroke-miterlimit="4" stroke-width="2.4" d="M23.92 23.92c-2.279 1.737-5.055 2.7-7.92 2.747-9.333 0-14.667-10.667-14.667-10.667 1.659-3.091 3.959-5.791 6.747-7.92M13.2 5.653c0.918-0.215 1.857-0.322 2.8-0.32 9.333 0 14.667 10.667 14.667 10.667-0.809 1.514-1.775 2.94-2.88 4.253M18.827 18.827c-0.366 0.393-0.808 0.708-1.299 0.927s-1.020 0.336-1.557 0.346c-0.537 0.009-1.071-0.089-1.569-0.291s-0.95-0.501-1.33-0.88c-0.38-0.38-0.679-0.832-0.88-1.33s-0.3-1.032-0.29-1.569c0.009-0.537 0.127-1.067 0.346-1.558s0.534-0.932 0.927-1.298"></path>
<path fill="none" stroke="#fafafa" style="stroke: var(--color2, #fafafa)" stroke-linejoin="round" stroke-linecap="round" stroke-miterlimit="4" stroke-width="2.4" d="M1.333 1.333l29.333 29.333"></path>
</symbol>
<symbol id="icon-Icon" viewBox="0 0 54 32">
<path fill="#0ef387" style="fill: var(--color1, #0ef387)" d="M37.14 22.762c-0.105-0.281-9.39-18.757-9.529-19.038-0.489-1.194-1.361-2.213-2.513-2.916-2.897-1.686-6.597-0.703-8.273 2.213-1.152 2.002-1.082 4.356 0.035 6.217 0.105 0.246 8.971 17.95 9.145 18.231 0.105 0.281 0.244 0.527 0.384 0.808 0.489 1.194 1.361 2.213 2.513 2.916 2.897 1.686 6.597 0.738 8.273-2.178 1.187-2.002 1.082-4.391-0.035-6.252z"></path>
<path fill="#fafafa" style="fill: var(--color2, #fafafa)" d="M26.424 10.257c1.012-1.089 1.641-2.564 1.641-4.18 0-3.337-2.688-6.077-6.039-6.077-2.059 0-3.875 1.019-4.957 2.599-0.209 0.211-15.254 18.898-15.429 19.144-1.012 1.089-1.641 2.564-1.641 4.18 0 3.372 2.723 6.077 6.039 6.077 2.059 0 3.875-1.019 4.957-2.599 0.209-0.246 15.289-18.898 15.429-19.144z"></path>
<path fill="#fafafa" style="fill: var(--color2, #fafafa)" d="M52.359 10.257c1.012-1.089 1.641-2.564 1.641-4.18 0-3.372-2.723-6.077-6.039-6.077-2.060 0-3.875 1.019-4.957 2.599-0.209 0.211-15.289 18.898-15.463 19.144-1.012 1.089-1.641 2.564-1.641 4.18 0 3.372 2.723 6.077 6.039 6.077 2.059 0 3.875-1.019 4.957-2.599 0.244-0.246 15.289-18.898 15.464-19.144z"></path>
</symbol>
<symbol id="icon-log-out" viewBox="0 0 30 32">
<path fill="none" stroke="#838383" style="stroke: var(--color5, #838383)" stroke-linejoin="round" stroke-linecap="round" stroke-miterlimit="4" stroke-width="2.4471" d="M11.294 27.294h-5.020c-0.666 0-1.304-0.264-1.775-0.735s-0.735-1.109-0.735-1.775v-17.569c0-0.666 0.264-1.304 0.735-1.775s1.109-0.735 1.775-0.735h5.020"></path>
<path fill="none" stroke="#838383" style="stroke: var(--color5, #838383)" stroke-linejoin="round" stroke-linecap="round" stroke-miterlimit="4" stroke-width="2.4471" d="M20.078 22.275l6.274-6.275-6.274-6.274"></path>
<path fill="none" stroke="#838383" style="stroke: var(--color5, #838383)" stroke-linejoin="round" stroke-linecap="round" stroke-miterlimit="4" stroke-width="2.4471" d="M26.353 16h-15.059"></path>
</symbol>
<symbol id="icon-menu" viewBox="0 0 72 32">
<path fill="none" stroke="#fafafa" style="stroke: var(--color2, #fafafa)" stroke-linejoin="round" stroke-linecap="round" stroke-miterlimit="4" stroke-width="6" d="M3 3.167h66M3 28.833h66"></path>
</symbol>
<symbol id="icon-pencil" viewBox="0 0 32 32">
<path fill="none" stroke="#0ef387" style="stroke: var(--color1, #0ef387)" stroke-linejoin="round" stroke-linecap="round" stroke-miterlimit="4" stroke-width="3" d="M22.667 4c0.35-0.35 0.766-0.628 1.224-0.817s0.948-0.287 1.443-0.287c0.495 0 0.986 0.098 1.443 0.287s0.873 0.467 1.223 0.817 0.628 0.766 0.818 1.223c0.189 0.458 0.287 0.948 0.287 1.443s-0.098 0.986-0.287 1.443c-0.19 0.458-0.467 0.873-0.818 1.223l-18 18-7.333 2 2-7.333 18-18z"></path>
</symbol>
<symbol id="icon-search" viewBox="0 0 32 32">
<path fill="none" stroke="#0ef387" style="stroke: var(--color1, #0ef387)" stroke-linejoin="round" stroke-linecap="round" stroke-miterlimit="4" stroke-width="2.4" d="M14.667 25.333c5.891 0 10.667-4.776 10.667-10.667s-4.776-10.667-10.667-10.667c-5.891 0-10.667 4.776-10.667 10.667s4.776 10.667 10.667 10.667z"></path>
<path fill="none" stroke="#0ef387" style="stroke: var(--color1, #0ef387)" stroke-linejoin="round" stroke-linecap="round" stroke-miterlimit="4" stroke-width="2.4" d="M28 28l-5.8-5.8"></path>
</symbol>
<symbol id="icon-user-1" viewBox="0 0 30 32">
<path fill="none" stroke="#0ef387" style="stroke: var(--color1, #0ef387)" stroke-linejoin="round" stroke-linecap="round" stroke-miterlimit="4" stroke-width="2.4471" d="M25.098 27.294v-2.51c0-1.331-0.529-2.608-1.47-3.55s-2.218-1.47-3.549-1.47h-10.039c-1.331 0-2.608 0.529-3.549 1.47s-1.47 2.218-1.47 3.55v2.51"></path>
<path fill="none" stroke="#0ef387" style="stroke: var(--color1, #0ef387)" stroke-linejoin="round" stroke-linecap="round" stroke-miterlimit="4" stroke-width="2.4471" d="M15.059 14.745c2.772 0 5.020-2.247 5.020-5.020s-2.247-5.020-5.020-5.020c-2.772 0-5.020 2.247-5.020 5.020s2.247 5.020 5.020 5.020z"></path>
</symbol>
<symbol id="icon-user2" viewBox="0 0 33 32">
<path fill="#0ef387" style="fill: var(--color1, #0ef387)" d="M32.791 29.172c-2.035-3.572-5.213-6.355-9.022-7.901 1.894-1.421 3.293-3.401 3.999-5.661s0.683-4.685-0.066-6.931c-0.749-2.246-2.185-4.2-4.106-5.584s-4.229-2.129-6.596-2.129c-2.368 0-4.675 0.745-6.596 2.129s-3.357 3.338-4.106 5.584-0.772 4.671-0.066 6.931c0.706 2.26 2.105 4.241 3.999 5.661-3.809 1.546-6.987 4.329-9.022 7.901-0.126 0.203-0.21 0.429-0.247 0.665s-0.026 0.477 0.032 0.708c0.058 0.232 0.162 0.449 0.306 0.64s0.324 0.351 0.531 0.47c0.207 0.119 0.435 0.196 0.672 0.225s0.477 0.011 0.707-0.055c0.23-0.065 0.444-0.176 0.63-0.326s0.34-0.336 0.452-0.546c2.69-4.649 7.44-7.422 12.708-7.422s10.018 2.774 12.708 7.422c0.244 0.393 0.631 0.675 1.080 0.787s0.923 0.046 1.324-0.186c0.4-0.231 0.695-0.609 0.822-1.054s0.076-0.921-0.142-1.329zM9.281 12.25c0-1.527 0.453-3.019 1.301-4.288s2.054-2.259 3.464-2.843 2.962-0.737 4.46-0.439c1.497 0.298 2.873 1.033 3.952 2.112s1.815 2.455 2.113 3.952c0.298 1.497 0.145 3.049-0.439 4.46s-1.573 2.616-2.843 3.464c-1.269 0.848-2.762 1.301-4.288 1.301-2.046-0.002-4.008-0.816-5.455-2.263s-2.261-3.409-2.263-5.455z"></path>
</symbol>
<symbol id="icon-user" viewBox="0 0 30 32">
<path fill="none" stroke="#838383" style="stroke: var(--color5, #838383)" stroke-linejoin="round" stroke-linecap="round" stroke-miterlimit="4" stroke-width="2.4471" d="M25.098 27.294v-2.51c0-1.331-0.529-2.608-1.47-3.55s-2.218-1.47-3.549-1.47h-10.039c-1.331 0-2.608 0.529-3.549 1.47s-1.47 2.218-1.47 3.55v2.51"></path>
<path fill="none" stroke="#838383" style="stroke: var(--color5, #838383)" stroke-linejoin="round" stroke-linecap="round" stroke-miterlimit="4" stroke-width="2.4471" d="M15.059 14.745c2.772 0 5.020-2.247 5.020-5.020s-2.247-5.020-5.020-5.020c-2.772 0-5.020 2.247-5.020 5.020s2.247 5.020 5.020 5.020z"></path>
</symbol>
</defs>
</svg>
