<svg width="16" height="16" viewBox="0 0 16 16" fill="none" xmlns="http://www.w3.org/2000/svg">
<g clip-path="url(#clip0_71_2601)">
<path d="M11.333 2.00004C11.5081 1.82494 11.716 1.68605 11.9447 1.59129C12.1735 1.49653 12.4187 1.44775 12.6663 1.44775C12.914 1.44775 13.1592 1.49653 13.3879 1.59129C13.6167 1.68605 13.8246 1.82494 13.9997 2.00004C14.1748 2.17513 14.3137 2.383 14.4084 2.61178C14.5032 2.84055 14.552 3.08575 14.552 3.33337C14.552 3.58099 14.5032 3.82619 14.4084 4.05497C14.3137 4.28374 14.1748 4.49161 13.9997 4.6667L4.99967 13.6667L1.33301 14.6667L2.33301 11L11.333 2.00004Z" stroke="#0C0D0D" stroke-width="1.5" stroke-linecap="round" stroke-linejoin="round"/>
</g>
<defs>
<clipPath id="clip0_71_2601">
<rect width="16" height="16" fill="white"/>
</clipPath>
</defs>
</svg>
