<svg width="27" height="16" viewBox="0 0 27 16" fill="none" xmlns="http://www.w3.org/2000/svg">
<g clip-path="url(#clip0_80_6244)">
<path d="M18.5698 11.3809C18.5174 11.2404 13.8749 2.00221 13.8051 1.86171C13.5607 1.26456 13.1244 0.755229 12.5484 0.403966C11.0998 -0.439063 9.24979 0.0527039 8.41204 1.51044C7.83608 2.51154 7.87099 3.68827 8.42949 4.61911C8.48185 4.74206 12.9149 13.5939 13.0022 13.7344C13.0546 13.8749 13.1244 13.9978 13.1942 14.1383C13.4385 14.7355 13.8749 15.2448 14.4508 15.5961C15.8994 16.4391 17.7495 15.9649 18.5872 14.5071C19.1806 13.5061 19.1283 12.3118 18.5698 11.3809Z" fill="#0EF387"/>
<path d="M13.212 5.12843C13.7182 4.58397 14.0323 3.84632 14.0323 3.03842C14.0323 1.36992 12.6884 0 11.0129 0C9.98319 0 9.07563 0.50933 8.53458 1.29967C8.42986 1.40505 0.907563 10.7486 0.820297 10.8716C0.314156 11.416 0 12.1537 0 12.9616C0 14.6476 1.36134 16 3.01939 16C4.04913 16 4.95669 15.4907 5.49774 14.7003C5.60246 14.5774 13.1422 5.25137 13.212 5.12843Z" fill="#FAFAFA"/>
<path d="M26.1797 5.12843C26.6858 4.58397 27 3.84632 27 3.03842C27 1.35236 25.6386 0 23.9806 0C22.9508 0 22.0433 0.50933 21.5022 1.29967C21.3975 1.40505 13.8578 10.7486 13.7705 10.8716C13.2644 11.416 12.9502 12.1537 12.9502 12.9616C12.9502 14.6476 14.3115 16 15.9696 16C16.9993 16 17.9069 15.4907 18.4479 14.7003C18.5701 14.5774 26.0924 5.25137 26.1797 5.12843Z" fill="#FAFAFA"/>
</g>
<defs>
<clipPath id="clip0_80_6244">
<rect width="27" height="16" fill="white"/>
</clipPath>
</defs>
</svg>
