<svg width="33" height="32" viewBox="0 0 33 32" fill="currentColor" xmlns="http://www.w3.org/2000/svg">
<path d="M32.7909 29.1719C30.7558 25.6001 27.5779 22.817 23.7689 21.2706C25.6631 19.85 27.0622 17.8693 27.7682 15.6093C28.4742 13.3493 28.4512 10.9244 27.7024 8.67816C26.9537 6.43193 25.5172 4.47822 23.5964 3.09378C21.6756 1.70934 19.3679 0.964355 17.0001 0.964355C14.6324 0.964355 12.3247 1.70934 10.4039 3.09378C8.48304 4.47822 7.04652 6.43193 6.29778 8.67816C5.54904 10.9244 5.52602 13.3493 6.23201 15.6093C6.93799 17.8693 8.33717 19.85 10.2314 21.2706C6.42234 22.817 3.24447 25.6001 1.20933 29.1719C1.08323 29.3747 0.999177 29.6008 0.962182 29.8367C0.925187 30.0726 0.936 30.3135 0.993979 30.5451C1.05196 30.7768 1.15592 30.9944 1.29968 31.185C1.44344 31.3757 1.62407 31.5355 1.83083 31.655C2.03759 31.7744 2.26625 31.8511 2.50323 31.8804C2.74021 31.9097 2.98066 31.8911 3.2103 31.8256C3.43993 31.7602 3.65406 31.6492 3.83995 31.4993C4.02584 31.3494 4.1797 31.1637 4.29238 30.9532C6.98207 26.3041 11.7321 23.5313 17.0001 23.5313C22.2682 23.5313 27.0182 26.3056 29.7079 30.9532C29.9521 31.3458 30.3394 31.6282 30.7879 31.7404C31.2365 31.8527 31.7112 31.7861 32.1115 31.5548C32.5119 31.3235 32.8067 30.9455 32.9334 30.5009C33.0602 30.0562 33.0091 29.5796 32.7909 29.1719ZM9.28136 12.2501C9.28136 10.7234 9.73406 9.23109 10.5822 7.96175C11.4304 6.69241 12.6359 5.70308 14.0463 5.11886C15.4567 4.53465 17.0087 4.38179 18.506 4.67962C20.0033 4.97745 21.3786 5.71259 22.4581 6.79208C23.5376 7.87156 24.2727 9.24691 24.5706 10.7442C24.8684 12.2415 24.7155 13.7935 24.1313 15.2039C23.5471 16.6143 22.5578 17.8198 21.2884 18.668C20.0191 19.5161 18.5267 19.9688 17.0001 19.9688C14.9537 19.9665 12.9918 19.1525 11.5447 17.7054C10.0977 16.2584 9.28372 14.2965 9.28136 12.2501Z" fill="currentColor"/>
</svg>
